HIERARCHY
ROOT pelvis
{
  OFFSET 0 100 0
  CHANNELS 6 Xposition Yposition Zposition Zrotation Xrotation Yrotation
  JOINT pelvis_right_femur
  {
    OFFSET -10.78128 -3.44521 -0.5502486
    CHANNELS 3 Zrotation Xrotation Yrotation
    JOINT right_femur_tibia
    {
      OFFSET -0.8047443 -44.0398 -0.1307829
      CHANNELS 3 Zrotation Xrotation Yrotation
      JOINT right_tibia_foot
      {
        OFFSET 3.006224 -47.83518 -5
        CHANNELS 3 Zrotation Xrotation Yrotation
        End Site
        {
          OFFSET 0 -5 15
        }
      }
    }
  }
  JOINT pelvis_left_femur
  {
    OFFSET 10.78128 -3.44521 -0.5502486
    CHANNELS 3 Zrotation Xrotation Yrotation
    JOINT left_femur_tibia
    {
      OFFSET 0.8047443 -44.0398 -0.1307829
      CHANNELS 3 Zrotation Xrotation Yrotation
      JOINT left_tibia_foot
      {
        OFFSET -4.370144 -48.10324 -4.275266
        CHANNELS 3 Zrotation Xrotation Yrotation
        End Site
        {
          OFFSET 0 -5 15
        }
      }
    }
  }
  JOINT pelvis_spine1
  {
    OFFSET 0 6.468898 -3.129235
    CHANNELS 3 Zrotation Xrotation Yrotation
    JOINT spine1
    {
      OFFSET 0 23.15396 4.99043
      CHANNELS 3 Zrotation Xrotation Yrotation
      JOINT spine2
      {
        OFFSET 0 20.79997 -5.064912
        CHANNELS 3 Zrotation Xrotation Yrotation
        JOINT neck
        {
          OFFSET 0 14.38658 9.616178
          CHANNELS 3 Zrotation Xrotation Yrotation
          End Site
          {
            OFFSET 0 20 0
          }
        }
      }
      JOINT right_manubrium
      {
        OFFSET -5.722621 16.35077 3.967754
        CHANNELS 3 Zrotation Xrotation Yrotation
        JOINT right_clavicle
        {
          OFFSET -13.16364 1.694482 -4.693211
          CHANNELS 3 Zrotation Xrotation Yrotation
          JOINT right_humerus
          {
            OFFSET -28.5034 -0.3100689 -2.792744
            CHANNELS 3 Zrotation Xrotation Yrotation
            JOINT right_radius
            {
              OFFSET -25.15693 0.02248979 -1.271978
              CHANNELS 3 Zrotation Xrotation Yrotation
              End Site
              {
                OFFSET -15 0 0
              }
            }
          }
        }
      }
      JOINT left_manubrium
      {
        OFFSET 5.722621 16.35077 3.967754
        CHANNELS 3 Zrotation Xrotation Yrotation
        JOINT left_clavicle
        {
          OFFSET 13.16364 1.694482 -4.693211
          CHANNELS 3 Zrotation Xrotation Yrotation
          JOINT left_humerus
          {
            OFFSET 29.39168 -1.063119 -2.237045
            CHANNELS 3 Zrotation Xrotation Yrotation
            JOINT left_radius
            {
              OFFSET 24.59957 -0.9528479 0.9047498
              CHANNELS 3 Zrotation Xrotation Yrotation
              End Site
              {
                OFFSET 15 -0 -0
              }
            }
          }
        }
      }
    }
  }
}
MOTION
Frames: 13
Frame Time: 0.0416666666667
0 103.5113 0 0.6487205 -1.128936 -0.03044182 4.697652 -17.62599 9.238353 -0 37.77236 -0 -7.376414 -16.14734 -2.548299 -7.294972 9.608487 -24.37118 -0 4.746035 -0 9.904038 -18.51048 28.88467 -3.626222 -2.986372 4.614857 2.466346 9.194664 -6.833585 1.72812 22.65819 6.672893 3.322833 -25.22967 9.703326 5.70628 -20.36042 11.35703 84.83572 33.83477 -17.30868 -0 0 16.6916 -5.016226 5.871056 3.480431 5.98643 -18.96911 -1.402317 -95.93877 27.39874 23.69444 0 0 -14.20386 8.849546 18.54842 3.681908
0.3523798 103.308 1.171189 0.6099494 -1.001721 -0.07802392 4.797643 -17.77231 9.281912 -0 37.52867 -0 -7.333667 -16.25117 -2.524464 -7.283574 9.595755 -24.3534 -0 4.774028 -0 9.93737 -18.50795 28.85135 -3.589709 -3.01365 4.638787 2.48906 9.166488 -6.845197 1.735626 22.60103 6.666894 3.31207 -25.29698 9.72718 5.692363 -20.36723 11.34593 84.79839 33.82556 -17.31294 -0 0 16.754 -4.935895 5.856014 3.431929 6.014612 -18.95559 -1.345974 -95.94112 27.28635 23.71832 0 0 -14.20935 8.991644 18.51451 3.511548
0.6485026 102.963 2.7239 0.5003468 -0.749172 -0.04449528 4.680533 -20.03354 8.19078 -0 34.4851 -0 -7.25048 -14.16088 -2.542576 -6.937819 10.9482 -23.10993 -0 4.529217 -0 8.758844 -19.25118 27.20177 -3.426404 -2.812726 4.312144 2.490742 9.260866 -7.212768 1.562538 22.39218 6.908206 3.441876 -25.06306 9.562537 5.462681 -19.91306 11.34249 85.77583 33.88088 -18.52316 -0 0 15.64494 -6.284613 6.637293 3.948226 6.294588 -19.84165 -1.739745 -94.48673 27.27086 21.97232 0 0 -16.4377 8.493043 17.9134 4.117096
0.9135048 102.531 4.572621 0.3445126 -0.2298446 0.04766642 4.77055 -21.81795 7.669253 -0 32.02887 -0 -6.970115 -13.09575 -2.561349 -6.684957 11.72484 -22.26206 -0 4.338691 -0 7.791789 -19.76102 25.90968 -3.259203 -2.706427 4.154998 2.541122 9.224941 -7.509219 1.436293 22.10195 7.108232 3.530763 -25.0129 9.501591 5.443364 -19.58184 11.33469 86.24857 34.21937 -19.36404 -0 0 15.09206 -7.030193 7.30357 4.254144 6.512574 -20.36419 -1.835685 -93.64204 27.37197 21.0218 0 0 -18.04402 7.992414 17.38725 4.79911
1.152855 102.0177 6.7342 0.1416458 0.4262656 0.1935835 4.982753 -23.62583 7.280549 -0 29.45397 -0 -6.644642 -12.26464 -2.564994 -6.437778 12.40945 -21.45445 -0 4.311369 -0 6.862 -20.18566 24.62763 -3.051939 -2.638124 4.041282 2.617545 9.144905 -7.798049 1.331145 21.75575 7.287523 3.600699 -25.04875 9.477473 5.433254 -19.26641 11.31096 86.63055 34.5657 -20.15276 -0 0 14.6572 -7.606179 7.926505 4.481092 6.742787 -20.81255 -1.833266 -92.89296 27.36575 20.20346 0 0 -19.52602 7.651691 16.84546 5.299566
1.372662 101.438 9.219221 -0.1035128 1.184782 0.3877452 5.300897 -25.37979 7.030045 -0 26.89069 -0 -6.298144 -11.62097 -2.553394 -6.197558 12.98927 -20.70028 -0 4.509935 -0 5.949861 -20.50163 23.36084 -2.812728 -2.601529 3.965627 2.713011 9.030931 -8.07343 1.244545 21.3697 7.449674 3.658163 -25.15788 9.484046 5.447913 -18.96387 11.27561 86.92682 34.94441 -20.88244 -0 0 14.32064 -8.023579 8.513938 4.639968 6.969329 -21.18166 -1.743898 -92.26317 27.30042 19.54719 0 0 -20.85293 7.416787 16.30355 5.690459
1.577769 100.8098 12.05258 -0.3904611 2.00344 0.6256056 5.706605 -27.07166 6.864109 -0 24.34874 -0 -5.971087 -11.02363 -2.520161 -5.957964 13.5034 -19.9561 -0 5.052795 -0 5.024007 -20.68971 22.06546 -2.537125 -2.587776 3.912147 2.81929 8.904143 -8.336016 1.17369 20.95633 7.595846 3.708365 -25.32318 9.509047 5.464388 -18.66122 11.22967 87.19364 35.31609 -21.58122 -0 0 14.01585 -8.344744 9.072423 4.752783 7.187751 -21.5015 -1.599891 -91.70611 27.14862 18.99534 0 0 -22.04732 7.297924 15.75744 5.953487
1.772938 100.1579 15.27164 -0.7206236 2.854642 0.9035318 6.18742 -28.67277 6.755163 -0 21.86679 -0 -5.686895 -10.36677 -2.463664 -5.7145 13.96089 -19.1879 -0 6.076638 -0 4.039195 -20.71851 20.69611 -2.22057 -2.588604 3.872162 2.929699 8.780289 -8.586858 1.114645 20.52204 7.730177 3.75733 -25.53045 9.542657 5.479571 -18.34581 11.17617 87.46538 35.67572 -22.27014 -0 0 13.69748 -8.616699 9.621589 4.840502 7.387834 -21.78827 -1.421553 -91.20227 26.9137 18.52987 0 0 -23.12152 7.267828 15.19754 6.124666
1.962909 99.51564 18.92732 -1.092907 3.697823 1.217391 6.726624 -30.13258 6.67073 -0 19.49598 -0 -5.474527 -9.537462 -2.38439 -5.463775 14.36263 -18.35587 -0 7.769909 -0 2.950477 -20.53976 19.20939 -1.857544 -2.594321 3.837752 3.035909 8.679613 -8.824678 1.064252 20.07714 7.854141 3.810069 -25.76096 9.572524 5.486751 -18.00488 11.11914 87.78142 36.0063 -22.96907 -0 0 13.31472 -8.892148 10.17932 4.925444 7.555275 -22.05861 -1.233735 -90.73073 26.59175 18.13058 0 0 -24.08092 7.30297 14.61369 6.234001
2.152479 98.92831 23.08206 -1.49997 4.47071 1.559601 7.299457 -31.35629 6.576085 -0 17.31954 -0 -5.369467 -8.425576 -2.286119 -5.204208 14.68948 -17.41877 -0 10.38537 -0 1.717805 -20.0824 17.57548 -1.443893 -2.592556 3.803162 3.126818 8.628407 -9.043596 1.020198 19.64 7.965494 3.870258 -25.98766 9.582381 5.478222 -17.62732 11.06495 88.18199 36.28047 -23.6908 -0 0 12.81358 -9.227801 10.76089 5.031147 7.668176 -22.32644 -1.067338 -90.27595 26.18038 17.78282 0 0 -24.91591 7.374664 13.99894 6.316232
2.346212 98.4576 27.8022 -1.921011 5.072388 1.913665 7.866469 -32.17337 6.431882 -0 15.4715 -0 -5.41679 -6.936969 -2.176088 -4.937184 14.88569 -16.33738 -0 14.25088 -0 0.3217053 -19.2479 15.79984 -0.9803249 -2.566775 3.767004 3.186423 8.6629 -9.228901 0.9816966 19.24434 8.054911 3.938603 -26.16911 9.549409 5.44229 -17.20874 11.02428 88.7044 36.44957 -24.43031 -0 0 12.14014 -9.685329 11.37221 5.181638 7.69336 -22.60085 -0.9644942 -89.83173 25.67805 17.48017 0 0 -25.59094 7.44998 13.35561 6.406012
2.547434 98.18755 33.14062 -2.312031 5.349082 2.246292 8.369137 -32.30141 6.198638 -0 14.14851 -0 -5.665393 -5.032516 -2.065484 -4.667303 14.82805 -15.08267 -0 19.74728 -0 -1.213343 -17.91543 13.95558 -0.4782164 -2.495081 3.738078 3.191885 8.831255 -9.352061 0.9499634 18.94601 8.102254 4.010299 -26.24316 9.442072 5.362165 -16.76146 11.01507 89.36861 36.43686 -25.14643 -0 0 11.25717 -10.32788 12.00235 5.399125 7.583506 -22.88062 -0.9816084 -89.41026 25.08836 17.23477 0 0 -26.034 7.487987 12.7019 6.537894
2.755772 98.22733 39.10453 -2.597402 5.094893 2.500437 8.734019 -31.32711 5.851641 -0 13.58446 -0 -6.146382 -2.799756 -1.971139 -4.398851 14.28404 -13.64753 -0 27.20714 -0 -2.792727 -15.97204 12.21748 0.03270933 -2.350428 3.745297 3.113006 9.190046 -9.367272 0.9280133 18.82403 8.074041 4.071989 -26.12398 9.220225 5.216461 -16.33083 11.06574 90.1508 36.1402 -25.73878 -0 0 10.18087 -11.21189 12.61766 5.700436 7.280218 -23.14695 -1.186744 -89.05289 24.42735 17.09267 0 0 -26.13774 7.433172 12.07584 6.749128
